<svg fill="none" height="80" viewBox="0 0 80 80" width="80" xmlns="http://www.w3.org/2000/svg" xmlns:xlink="http://www.w3.org/1999/xlink"><linearGradient id="a" gradientUnits="userSpaceOnUse" x1="49.0973" x2="49.0973" y1="56.7621" y2="48.5567"><stop offset=".00132565" stop-color="#ffcb4b"/><stop offset="1" stop-color="#ffd748"/></linearGradient><linearGradient id="b"><stop offset=".00132565" stop-color="#d2a374"/><stop offset="1" stop-color="#deba94"/></linearGradient><linearGradient id="c" gradientUnits="userSpaceOnUse" x1="44.5261" x2="32.5723" xlink:href="#b" y1="52.8844" y2="25.809"/><linearGradient id="d" gradientUnits="userSpaceOnUse" x1="52.615" x2="57.9212" xlink:href="#b" y1="42.0892" y2="82.2465"/><linearGradient id="e"><stop offset="0" stop-color="#ffbc47" stop-opacity="0"/><stop offset="1" stop-color="#c86f34"/></linearGradient><linearGradient id="f" gradientUnits="userSpaceOnUse" x1="66.1182" x2="65.5083" xlink:href="#e" y1="73.758" y2="28.752"/><linearGradient id="g" gradientUnits="userSpaceOnUse" x1="63.6366" x2="63.0267" xlink:href="#e" y1="73.7905" y2="28.7854"/><linearGradient id="h"><stop offset="0" stop-color="#d2a374" stop-opacity="0"/><stop offset="1" stop-color="#b88653"/></linearGradient><linearGradient id="i" gradientUnits="userSpaceOnUse" x1="53.2613" x2="52.6534" xlink:href="#h" y1="73.7672" y2="28.912"/><linearGradient id="j" gradientUnits="userSpaceOnUse" x1="57.6131" x2="57.6131" xlink:href="#b" y1="56.5798" y2="25.4734"/><linearGradient id="k" gradientUnits="userSpaceOnUse" x1="39.961" x2="39.961" xlink:href="#b" y1="56.6144" y2="25.592"/><linearGradient id="l" gradientUnits="userSpaceOnUse" x1="13.5351" x2="13.5351" xlink:href="#b" y1="56.6121" y2="25.5058"/><linearGradient id="m" gradientUnits="userSpaceOnUse" x1="25.705" x2="25.705" xlink:href="#b" y1="56.6119" y2="25.5056"/><linearGradient id="n" gradientUnits="userSpaceOnUse" x1="38.161" x2="36.8802" xlink:href="#h" y1="82.2846" y2="10.0194"/><linearGradient id="o" gradientUnits="userSpaceOnUse" x1="56.8245" x2="48.4634" xlink:href="#h" y1="22.6108" y2="85.856"/><linearGradient id="p" gradientUnits="userSpaceOnUse" x1="54.4516" x2="54.2077" xlink:href="#e" y1="56.0531" y2="98.7413"/><linearGradient id="q" gradientUnits="userSpaceOnUse" x1="13.6004" x2="13.6004" xlink:href="#h" y1="20.8939" y2="77.2436"/><linearGradient id="r" gradientUnits="userSpaceOnUse" x1="26.4864" x2="26.4864" xlink:href="#h" y1="20.8939" y2="77.2436"/><linearGradient id="s" gradientUnits="userSpaceOnUse" x1="40.7977" x2="40.7977" xlink:href="#h" y1="20.8939" y2="77.2437"/><linearGradient id="t" gradientUnits="userSpaceOnUse" x1="57.6974" x2="57.6974" xlink:href="#h" y1="20.894" y2="77.2437"/><linearGradient id="u"><stop offset="0" stop-color="#e9cdb1"/><stop offset="1" stop-color="#e9cdb1" stop-opacity="0"/></linearGradient><radialGradient id="v" cx="0" cy="0" gradientTransform="matrix(-.75349159 -6.94945083 3.76263802 -.40796261 12.7678 42.2264)" gradientUnits="userSpaceOnUse" r="1" xlink:href="#u"/><radialGradient id="w" cx="0" cy="0" gradientTransform="matrix(-.37211779 -3.41430168 4.58403493 -.49960463 14.2625 28.7895)" gradientUnits="userSpaceOnUse" r="1" xlink:href="#u"/><radialGradient id="x" cx="0" cy="0" gradientTransform="matrix(-.94097881 -3.30311296 4.43519226 -1.26348144 25.0081 24.789)" gradientUnits="userSpaceOnUse" r="1" xlink:href="#u"/><radialGradient id="y" cx="0" cy="0" gradientTransform="matrix(-1.54281602 -5.41861022 6.40433318 -1.8234764 39.8978 19.9132)" gradientUnits="userSpaceOnUse" r="1" xlink:href="#u"/><radialGradient id="z" cx="0" cy="0" gradientTransform="matrix(.39246208 -4.03395371 4.98588915 .48507557 56.5877 20.5373)" gradientUnits="userSpaceOnUse" r="1" xlink:href="#u"/><radialGradient id="A" cx="0" cy="0" gradientTransform="matrix(-.84846147 -7.94634162 4.21231647 -.44976524 23.9386 42.8723)" gradientUnits="userSpaceOnUse" r="1" xlink:href="#u"/><radialGradient id="B" cx="0" cy="0" gradientTransform="matrix(-1.07270346 -10.08651926 6.63949799 -.70611202 40.684 41.572)" gradientUnits="userSpaceOnUse" r="1" xlink:href="#u"/><radialGradient id="C" cx="0" cy="0" gradientTransform="matrix(-.38223069 -10.14169961 5.14985371 -.19409292 57.1809 41.0728)" gradientUnits="userSpaceOnUse" r="1" xlink:href="#u"/><radialGradient id="D" cx="0" cy="0" gradientTransform="matrix(39.74992883 -1.80303154 .79431481 17.51159445 37.2895 20.121)" gradientUnits="userSpaceOnUse" r="1"><stop offset="0" stop-color="#d2a374" stop-opacity="0"/><stop offset="1" stop-color="#d2a374"/></radialGradient><path d="m49.0957 57.2558c2.9308 0 5.3066-2.3762 5.3066-5.3073 0-2.9312-2.3758-5.3074-5.3066-5.3074s-5.3066 2.3762-5.3066 5.3074c0 2.9311 2.3758 5.3073 5.3066 5.3073z" fill="url(#a)"/><path d="m18.8549 53.8978c-3.0492 1.5839-10.8549 3.7799-10.8549-11.5867s3.0493-18.5397 5.4249-18.5397 3.9645.2417 5.6717-1.9491c1.7072-2.196 4.3914-3.2914 8.2942-2.9263 3.9028.3652 5.1729-1.9439 6.6333-3.8982 1.4655-1.9491 5.4403-4.5205 9.0963-1.836 3.656 2.6846 5.9751 2.9263 8.5359 1.4657 2.5607-1.4657 9.266-1.7074 12.0736 4.0268 2.8024 5.7342 4.1445 11.345 4.1445 15.2483 0 3.9034 1.3421 7.3182 2.6842 10.0027 1.3421 2.6846 2.8024 8.4136-.977 15.0015s-4.0263 8.6604-8.901 8.2953c-4.8798-.3651-8.5255-1.2188-19.0257-1.2188-1.9488 0-4.7564-.8537-4.7564-3.5383 0-2.6845 2.9259-5.4873 6.587-6.953 3.656-1.4657 14.3927-2.8028 15.9765-5.8525 1.5837-3.0496-20.4861-.9771-20.4861-.9771z" fill="url(#c)"/><path d="m69.5867 58.8961c3.7794-6.5879 2.319-12.317.9769-15.0015-1.1775-2.3554-2.355-5.2816-2.6224-8.5987v.0051c.1337 3.1063-5.3015 12.713-8.4742 14.3278-1.5837 3.0497-12.3153 4.3919-15.9764 5.8525-3.6612 1.4605-6.587 4.2685-6.587 6.953s2.8024 3.5382 4.7564 3.5382c10.5001 0 14.1459.8537 19.0257 1.2189 4.8747.3651 5.1164-1.7074 8.901-8.2953z" fill="url(#d)"/><path d="m65.0771 21.6729c.2572.6377.4731 1.2651.6943 1.8925-.2212-.6274-.432-1.2497-.6943-1.8925z" fill="url(#f)"/><path d="m62.7839 17.1318c.0617.0772.1183.1595.1748.2366-.0565-.0771-.1182-.1594-.1748-.2366z" fill="url(#g)"/><path d="m66.2907 25.3293c.0052-.1697-.0411-.3137-.0565-.4783-.0309-.0977-.0772-.2006-.108-.2983-.2005 25.6882.1594 32.0293-8.0062 32.0293-8.1708 0-8.7827-3.0497-8.7827-4.3919 0-.5349-.0411-2.6794-.0874-5.3691v.0051c0 7.5599-1.2547 10.6147-7.1115 10.6147-.7045 0-1.373-.0205-2.0003-.072-.4371.3292-.8381.6789-1.2032 1.044-.54.54 1.9848 2.9314 10.6132 1.6817 1.7175-.2468 13.5031 3.4817 17.1129-3.8879 1.558-3.1783-1.0696-9.4319-.3703-30.8773z" fill="url(#i)"/><path d="m66.1313 24.5374c-.6274-1.9028-1.4193-3.888-2.3963-5.8885-2.8024-5.7342-9.5129-5.4873-12.0736-4.0268-.8588.4937-1.6969.7714-2.5608.8486v19.0334c0 4.9988.2417 16.3437.2417 17.686s.6119 4.3919 8.7827 4.3919c8.1657 0 7.8006-6.341 8.0063-32.0446z" fill="url(#j)"/><path d="m43.1205 13.1618c-3.6561-2.6845-7.6309-.1131-9.0964 1.836-.941 1.2548-1.8409 2.3554-3.3578 3.2451v.0154c.1079 7.5753.2571 14.297.2571 14.297 0 6.5879 1.2701 13.15 1.6043 16.966.5656 6.4902 3.764 7.9147 9.6158 7.9147 5.8517 0 7.1115-3.0497 7.1115-10.6147 0-5.4462 0-22.3402 0-31.3709-1.7535.216-3.6303-.4526-6.1345-2.2886z" fill="url(#k)"/><path d="m17.2661 37.3071c-.1954-5.2817.2468-10.3061.8638-14.5078-1.3729 1.1057-2.7767.9669-4.705.9669-2.3756 0-5.4249 3.1731-5.4249 18.5397s7.8057 13.1706 10.855 11.5866l.2159-.0566c-.9821-3.0599-1.4963-8.1255-1.8048-16.5288z" fill="url(#l)"/><path d="m32.5279 49.521c-.3137-3.605-1.4552-9.6735-1.5786-15.886-.0155-.3754-.0258-.7406-.0258-1.08 0 0-.1491-6.7164-.2571-14.2969 0-.0051 0-.0103 0-.0154-.8433.4937-1.882.7765-3.2755.648-3.9028-.3652-6.587.7302-8.2942 2.9262-.3239.4166-.6427.7251-.9667.9823-.617 4.1965-1.0541 9.2261-.8638 14.5077.7301 20.0003 2.6224 21.1626 9.266 21.1626 3.8103 0 6.551-1.1314 7.6514-3.708 0-.0051-.0051-.0205-.0103-.0308-.8844-1.1932-1.4397-2.8697-1.6454-5.2097z" fill="url(#m)"/><path d="m42.1434 57.4356c5.8517 0 7.1115-3.0496 7.1115-10.6147 0 0 0 .0001 0-.0051.0463 2.6897.0875 4.8342.0875 5.3691 0 1.3422.6119 4.3919 8.7826 4.3919 8.1708 0 7.8057-6.341 8.0063-32.0395-.2829-.8537-.6068-1.7228-.9565-2.6022-1.1775 4.4896-3.0287 12.5895-3.0287 19.1671 0 9.6478-3.0492 9.5038-8.2941 8.8919-5.2449-.612-3.4144-19.6352-4.8799-19.6352s.1234 16.2821-1.0952 18.1746c-1.2187 1.8925-6.1088 3.42-11.2201 2.4377-5.1112-.9771-3.9028-19.3934-5.9905-19.3934s2.2111 21.9545-5.7848 21.9545c-7.996 0-5.7849-17.074-7.6154-17.074-1.8306 0 0 9.8792-.468 12.682-.4165 2.5046-4.9621 3.1474-8.2273-.6428 1.8512 8.4702 7.7285 6.7268 10.2842 5.3999l.2159-.0566c1.3575 4.2325 3.6098 4.6337 7.4663 4.6337 3.8103 0 6.551-1.1314 7.6514-3.708 0-.0051-.0051-.0205-.0102-.0257 1.5786 2.1034 4.2268 2.6948 7.965 2.6948z" fill="url(#n)"/><path d="m66.2445 42.4345c0-5.0605-.1183-17.8969-.1183-17.8969-.2005 25.6985.1646 32.0395-8.0062 32.0395s-8.7827-3.0496-8.7827-4.3919l-.0874-5.3691c0 7.5599-1.2547 10.6147-7.1115 10.6147-.7199 0-1.3833-.0308-2.0209-.0822-.0051.0051-.0051.0154-.0103.0154-.4319.324-.8227.6737-1.1826 1.0285 9.3431 1.2343 9.6105-3.6153 10.4384-2.7925 2.0414 2.0417 9.1786 4.5102 13.2614 1.8308 4.9107-3.2142 3.6201-9.9358 3.6201-14.9963z" fill="url(#o)"/><path d="m69.5867 58.896c3.7794-6.5879 2.319-12.3169.9769-15.0014-.4267-.8589-.8535-1.7949-1.2341-2.7925-.0051.1748.0258.3651.1389.5965 1.5837 3.2914 2.535 8.537 0 15.3666-2.5351 6.8296-8.1091 9.5758-11.9502 8.0484-3.8412-1.5222-11.6469-1.0388-14.8195-1.0388-2.242 0-4.5199-1.0749-5.6769-2.52-.0668.2932-.1131.5812-.1131.8692 0 2.6845 2.8024 3.5382 4.7564 3.5382 10.5002 0 14.1459.8537 19.0257 1.2188 4.8696.3754 5.1113-1.6971 8.8959-8.285z" fill="url(#p)"/><path d="m8.12842 45.4634c1.01813 11.8798 7.90338 9.8998 10.72128 8.4341l.216-.0566c-.396-1.2394-.7148-2.8336-.977-4.8187-.5811 4.4485-8.1914 3.0754-9.96028-3.5588z" fill="url(#q)"/><path d="m18.783 52.8536c1.3163 5.1633 3.6097 5.6159 7.7491 5.6159 3.8103 0 6.551-1.1314 7.6514-3.708 0-.0051-.0052-.0205-.0103-.0308-.8896-1.1931-1.4449-2.8697-1.6455-5.2148-.0874-.972-.2314-2.1394-.401-3.4251-.0463.1389-.0103.5503.1388 1.3371 1.2804 6.7371-10.0116 10.2445-13.4825 5.4257z" fill="url(#r)"/><path d="m39.2382 52.0359c-3.147 0-6.0625-1.2342-6.8493-3.8211.0514.4578.1029.9052.1388 1.3063.5657 6.4902 3.7641 7.9147 9.6157 7.9147 5.0136 0 6.6488-2.2474 7.019-7.6421l.0411-1.3217c-1.3575 3.1114-6.3247 3.5639-9.9653 3.5639z" fill="url(#s)"/><path d="m57.4462 13.9126c4.0315 1.6971 5.9186 11.2215 5.9186 20.9259 0 10.7022-.9153 16.7398-6.4945 16.7398s-6.8595-1.2806-7.5023-3.9343c-.0257-.108-.0617-.1748-.108-.2262.0411 2.4016.0771 4.2685.0771 4.7673 0 1.3423.612 4.392 8.7828 4.392s7.8057-6.3411 8.0062-32.0395c-.6273-1.9029-1.4192-3.888-2.3962-5.8885-1.4346-2.9314-3.8874-4.2942-6.2837-4.7365z" fill="url(#t)"/><path d="m12.2369 35.4453c2.098-.2777 3.5584 2.9674 4.2577 6.6548.5708 3.0188-.7353 6.6598-2.7922 6.881-2.0568.2211-3.92852.0565-4.62271-6.2845-.40622-3.7388 1.10551-6.9787 3.15721-7.2513z" fill="url(#v)" opacity=".5"/><path d="m14.1139 25.4582c2.5659-.2777 4.0828 1.2445 4.6433 3.0394.4577 1.4657-1.4089 3.3685-3.9182 3.6102-2.5094.2469-4.7668.2829-5.11127-2.8285-.20054-1.836 1.88197-3.5537 4.38617-3.8211z" fill="url(#w)" opacity=".5"/><path d="m24.3107 21.5033c2.4836-.7045 4.2319.54 5.0855 2.2165.6993 1.368-.8227 3.5537-3.255 4.2222-2.4322.6635-4.6484 1.0852-5.5123-1.9285-.509-1.7794 1.2547-3.8211 3.6818-4.5102z" fill="url(#x)" opacity=".5"/><path d="m38.7342 14.5504c3.584-1.0132 6.2065 1.1005 7.5331 3.8673 1.0902 2.2628-1.0181 5.7393-4.5301 6.6908-3.5121.9514-6.7259 1.5222-8.1399-3.4251-.8279-2.9108 1.6352-6.1405 5.1369-7.133z" fill="url(#y)" opacity=".5"/><path d="m57.2045 16.6486c2.787.2777 4.052 2.3863 4.2319 4.5925.1492 1.8-2.2727 3.564-4.998 3.2708-2.7253-.2982-5.1266-.7765-4.777-4.4588.2108-2.1753 2.8179-3.677 5.5431-3.4045z" fill="url(#z)" opacity=".5"/><path d="m23.3234 35.0853c2.3448-.3446 3.9851 3.3531 4.7667 7.5701.6428 3.4457-.8176 7.6319-3.1161 7.9096s-4.3913.1131-5.1729-7.1382c-.4577-4.2736 1.2289-8.0021 3.5223-8.3415z" fill="url(#A)" opacity=".5"/><path d="m39.9581 31.7064c3.7022-.5142 6.155 4.14 7.2503 9.4782.8947 4.3662-1.5324 9.7404-5.1575 10.1724-3.6252.432-6.9109.288-7.8982-8.9176-.5811-5.4256 2.1905-10.229 5.8054-10.733z" fill="url(#B)" opacity=".5"/><path d="m57.0504 31.1821c2.8744-.2418 4.561 4.5822 5.1678 9.9924.4988 4.4227-1.6095 9.6067-4.4273 9.7661-2.8127.1645-5.3426-.2212-5.6974-9.4782-.2005-5.4564 2.1494-10.0438 4.9569-10.2803z" fill="url(#C)" opacity=".5"/><path d="m65.0772 21.6729c-.4011-.9977-.8485-2.0108-1.3473-3.024-2.8024-5.7341-9.5128-5.4873-12.0736-4.0267-.8381.4782-1.6506.7457-2.4887.8331-1.7329.1851-3.5841-.4886-6.0471-2.2988-3.6561-2.6846-7.6309-.1132-9.0964 1.8359-.941 1.2549-1.8408 2.3554-3.3578 3.2451-.8433.4937-1.882.7766-3.2755.648-3.9028-.3651-6.587.7303-8.2941 2.9262-.324.4166-.6428.7252-.9668.9823-1.3729 1.1057-2.7767.9668-4.705.9668-1.3215 0-2.8487.9874-3.94394 4.4948 2.26764-4.2119 5.85684-2.3502 8.81864-3.0291 3.1727-.7302 3.5275-7.8427 12.3667-5.1222 1.7843.5503 3.9337-6.5878 8.1965-6.5878 4.2577 0 6.9418 3.605 10.2379 3.605s9.6414-4.865 15.9765 4.5514z" fill="url(#D)"/><g fill="#975500"><path d="m49.2548 31.9123.3137 16.858.0565 2.1086c.0412.6942-.0308 1.4348.1132 2.0365.2725 1.2703 1.4603 2.1085 2.7099 2.556 1.2701.4577 2.6584.6428 4.0365.7148 1.3832.0411 2.787.108 4.0726-.2468 1.2958-.324 2.3705-1.1623 3.0132-2.3349.3806-.5502.5502-1.2291.8074-1.8514.1542-.6737.365-1.3268.4679-2.0159.4936-2.7308.6325-5.544.7713-8.3416.1337-2.8028.1954-5.6108.2622-8.4187l.2417-8.429c.0772 5.621.1954 11.2421.0566 16.8683-.0514 2.8131-.2108 5.6364-.6788 8.4392-.0977.7046-.3188 1.3937-.473 2.0932-.2726.6737-.4423 1.3834-.8588 2.0056-.689 1.3012-1.9797 2.3349-3.4298 2.6897-1.4449.3806-2.895.288-4.3039.2366-1.4192-.0874-2.8539-.2777-4.2268-.7869-1.3318-.4782-2.7665-1.4605-3.0956-3.0393-.1594-.7817-.072-1.4606-.1028-2.1652l-.0103-2.1085c-.0051-5.621.1388-11.2472.2571-16.8683z"/><path d="m39.238 57.2763c1.3627.0669 2.7356.0206 4.0674-.108 1.3267-.1543 2.6328-.5657 3.5532-1.44.9307-.8742 1.3678-2.1599 1.6352-3.4508.2777-1.3011.3754-2.6537.4319-4.0062.108-2.7.0309-5.4514.0926-8.177.0566-2.7308.1183-5.4565.2365-8.1822l.2983 16.3746c-.0257 1.3731-.0926 2.7565-.3548 4.1297-.2726 1.3577-.7971 2.7822-1.8975 3.7799-1.0952 1.0234-2.5916 1.332-3.9542 1.3988-1.3935.0669-2.7613-.0668-4.1086-.3188z"/><path d="m30.9284 32.5552c.1851 1.9439.3394 3.8725.5708 5.801.2313 1.9234.4576 3.852.7404 5.7702.2211 1.9234.504 3.8674.6171 5.8062.1594 1.8925.5502 3.8468 1.7946 5.3691-1.4912-1.3269-2.0877-3.384-2.3551-5.3074-.2314-1.9337-.5039-3.8416-.7816-5.7753-.2211-1.9337-.4628-3.8674-.5708-5.8165-.1234-1.9491-.1337-3.9034-.0154-5.8473z"/><path d="m17.2661 37.3071c.2056 1.4503.3342 2.9006.4782 4.3457l.3856 4.3405c.1234 1.4451.2623 2.8851.432 4.3251.1799 1.4348.3959 2.8645.7713 4.2736-.6633-1.3114-1.0336-2.7514-1.3267-4.1862-.2982-1.44-.4628-2.8954-.6016-4.3508-.2417-2.9057-.3137-5.8268-.1388-8.7479z"/></g></svg>