<svg height="64" preserveAspectRatio="none" viewBox="0 0 64 64" width="64" xmlns="http://www.w3.org/2000/svg"><path d="m28.8456993 58.7294884c8.1133003 0 12.2129021-4.2343674 13.4706993-6.0468903 3.2900009-4.7440987 6.9639015-12.1688995 6.9639015-12.1688995s3.8280983-4.2538986 4.8983994-5.532299c1.0713005-1.2783012-2.6044998-5.4042988-7.1171989-.9589005-3.3164024 3.2666016-3.7108994 4.2714005-3.7108994 4.2714005l-3.8661995 1.455101.7665977-6.4140015s1.9121017-13.0976982 2.830101-15.5468998c.9188996-2.4482994 2.1855012-6.9638996-1.4706992-6.7343989-3.6562996.2294998-4.9580994 6.5819998-4.9580994 6.5819998s-2.4296036 9.6075001-2.5058022 12.2861996l-1.5317993-.4785004s.2666016-6.3008003.5932999-10.5068989c.327198-4.2060003.8437996-9.6435003 1.2256012-11.4804001.3817978-1.8369999-3.1397018-3.8262-4.8994007 0-1.7603016 3.8270999-1.7627011 10.4090996-1.7627011 10.4090996l-1.0401001 11.3194008-1.8460999.2909985s-1.4794998-8.2978992-1.5503006-11.3808994c-.0707989-3.0830002-.918499-7.5760994-1.0712986-9.3368998-.1529007-1.7607002-3.8267002-.7646003-4.5151997 2.5254002-.6889 3.2909994.6884995 7.7294989.6884995 7.7294989l1.2616998 11.9365005-1.3192997 1.0517998c-2.8579006-7.6523991-2.5225-6.4727001-3.1191006-9.9678001-.5361996-3.1376991-1.4151001-5.7792988-1.6445999-7.1571989-.2294998-1.3780003-3.9789801-.6133003-3.9799595 3.2137995-.0014601 4.9747009 3.7114601 17.602602 3.7114601 17.602602s-.3443003 5.6649971.1152 9.2616997c.4589996 3.5956993 1.2646999 7.1395988 2.7549 9.3359375 2.2264996 3.2822302 4.8983994 4.4394492 12.6283989 4.4394492z" fill="#f2b375"/><path d="m28.8456993 59.3730507c-7.6313 0-10.7064991-1.1025391-13.1610994-4.7216797-1.3534994-1.9951706-2.2895994-5.1406708-2.8608999-9.6161728-.4310999-3.3769989-.1732998-8.4277992-.1254997-9.2685966-.3867006-1.3262024-3.7074804-12.8555012-3.7060099-17.6768017.0004892-3.0663996 2.1802101-4.4940996 3.6528101-4.4940996.8564997 0 1.4867992.4608994 1.6059999 1.1737995.0878992.5293007.2875996 1.2958994.5190001 2.1836004.3564997 1.3701.8007994 3.0751991 1.125 4.9717007l.1283989.7626991c.3628006 2.1709003.3628006 2.1709003 1.9927006 6.5098l.6548004 1.7479992.3505993-.2792988-1.2182999-11.5244007c-.1737995-.5811005-1.3628006-4.7509995-.6844997-7.9902.5034007-2.4062997 2.5125999-3.8964997 4.0858993-3.8964997.956501 0 1.6240005.5683002 1.7007008 1.4471998.0508003.585.1840992 1.5059004.3383999 2.5713005.3061008 2.1122999.6875 4.7412004.7348003 6.8066988.0576 2.5136013 1.0907993 8.6816006 1.4321003 10.6611004l.7255993-.1141987.9941998-10.8213005c-.0025005-.2159004.0205002-6.7080002 1.8188-10.6182003 1.0244007-2.2284999 2.512701-2.5605001 3.3086014-2.5605001.8866997 0 1.7460976.4061999 2.2987976 1.0859003.4541016.5576.6387024 1.2412.5069008 1.8740001-.3614006 1.7392993-.8700981 6.9784999-1.2138977 11.3993988-.2685013 3.4678001-.5 8.4239006-.5693016 9.9903011l.2900008.0907998c.3964996-3.4151001 2.3661995-11.2285004 2.4580002-11.5898991.0508003-.25 1.4413986-6.8086014 5.5419998-7.0664005 1.4678001-.0898008 2.2383003.5302992 2.5985985 1.0497999.8497009 1.2265997.6865997 3.4316998-.4852982 6.5537004-.8828011 2.3564987-2.7764015 15.2833004-2.7959023 15.4130993l-.6386986 5.3456993 2.6493988-.9969978c.3077011-.5137024 1.1973-1.7354012 3.7110023-4.2129021 1.8426971-1.8144989 3.4862976-2.1952991 4.5409966-2.1952991 1.8262024 0 3.142601 1.0692997 3.6377029 2.1298008.3300972.7070999.2870979 1.4160995-.1161995 1.8964996-1.0049019 1.2011986-4.3506012 4.9248009-4.8544998 5.4843979-.4092026.8193016-3.8760033 7.7070007-6.9717026 12.1709023-.7333983 1.0556679-4.8525008 6.3232498-13.9999999 6.3232498zm-16.2006988-44.4902506c-.7407007 0-2.3647003.8076-2.3657007 3.2069998-.0009995 4.8262005 3.6484003 17.2959003 3.6855001 17.4209003.0209999.0713005.0292997.1464996.0249004.2206993-.0033998.0557022-.3348999 5.6464996.1113997 9.1407013.5375996 4.2108994 1.4287004 7.2578011 2.6489 9.0565987 1.9501991 2.8750114 4.1592007 4.1572418 12.0956993 4.1572418 8.5068016 0 12.2733994-4.8066406 12.9414024-5.7705421 3.2245979-4.6493988 6.8798981-12.0135994 6.9159966-12.0868988.0264015-.0527.0596008-.1015015.0987015-.1455002.038002-.0419998 3.8330002-4.2598 4.8837013-5.5145988.0556984-.0674019.059597-.2598-.0643997-.5254021-.3115005-.6689987-1.2178001-1.3876991-2.4707031-1.3876991-1.1669998 0-2.4247971.6307983-3.6366997 1.8260994-3.0712967 3.0254021-3.5527992 4.0254021-3.5712967 4.0665016-.0713005.1532974-.2070007.2889977-.365303.3485985l-3.8661995 1.455101c-.2089005.0790977-.4472008.0419998-.6240005-.0956993-.1767006-.1387024-.2684975-.3604012-.2421989-.5830002l.7666016-6.4141006c.0811005-.5536995 1.9356003-13.2109013 2.8671989-15.6963005.9716988-2.5888996 1.2011986-4.5459003.6319008-5.3682003-.0937996-.1346998-.4267998-.5643997-1.4600029-.4980001-2.5956993.1631002-4.0331993 4.4355001-4.3671989 6.0683012-.0312004.1240997-2.419899 9.5977001-2.4931984 12.1749001-.0058022.2020988-.1054001.3885994-.2695007.5057983-.1641006.1182003-.3740005.152401-.5653992.0908012l-1.5321999-.4775009c-.2784004-.0868988-.4639015-.3505993-.4512005-.6425991.0023994-.0625.2704983-6.3603001.5941982-10.5293007.3213005-4.1356993.8394012-9.6444998 1.2378006-11.5614996.0713004-.3447-.1230012-.6494004-.2461015-.7998-.3065987-.3770003-.8046989-.6113-1.2997971-.6113-.8423004 0-1.6015015.6434999-2.1387005 1.8114996-1.6801014 3.6523004-1.7035999 10.075201-1.7040997 10.1396008l-1.0424004 11.3789005c-.0269012.2929993-.25.5303001-.5411015.5761986l-1.8460999.2910004c-.3403988.0596008-.6718998-.1777-.7339001-.5223999-.0605984-.3409004-1.4888-8.3818989-1.5600986-11.4794998-.0459003-1.987299-.4204006-4.5732994-.7217007-6.6513996-.1576996-1.085-.2933998-2.0225-.3470993-2.6444998-.0098-.1084003-.0240002-.2715006-.4180012-.2715006-.9326 0-2.4335995.9990005-2.8256989 2.8730001-.647501 3.0917997.6597004 7.3643007.6728992 7.4073.012701.0400009.0209999.0809994.025301.1229992l1.2617989 11.9356003c.0228996.2187004-.0669003.4344997-.2388.5712013l-1.3192997 1.0528011c-.1616993.1278992-.3759995.1708984-.5732994.1171989-.1987-.0557022-.3589001-.2022018-.4311008-.3955002l-.9653988-2.5762005c-1.6425009-4.3731003-1.6738005-4.4561005-2.057601-6.7509995l-.1279001-.7578011c-.3144999-1.8417988-.7509995-3.5175991-1.1015997-4.8633003-.2489994-.9559997-.4457996-1.7108997-.5433996-2.2969002-.0078001-.0477991-.1445999-.0985994-.3354997-.0985994z" fill="#f2b375"/><g fill="#bf8258"><path d="m14.1508999 48.9443016c1.1479006 1.8251991 3.5708008 8.3965187 13.5956993 8.0244484s9.1196003-4.9736519 11.576601-5.8154488c2.4570999-.8428001 4.9833984-2.5263023 4.9833984-2.5263023s-2.7567978 10.0263214-17.1830978 10.1024895c-12.5893011.1523514-12.9726009-9.7851868-12.9726009-9.7851868z"/><path d="m18.3794003 37.4315987s8.3428001-2.9657974 11.2504997-3.4950981c2.9077015-.5312004 5.8164005 1.0585976 5.8164005 1.0585976s-14.3887005 2.3311004-17.0669002 2.4365005z"/><path d="m39.3232002 36.7645988s-11.576601 2.9687996-11.3192997 10.4854012c0 0 5.1289005-7.2724991 11.4805012-7.8838005z"/><path d="m37.9541016 15.1055002c-.0762024 1.6074 1.9130973 4.5917998 1.2235984 5.2041006-.6884003.612299-2.7538986 1.1152-2.5253983-1.2246017.2285996-2.3388996 1.3017999-3.9794989 1.3017999-3.9794989z"/><path d="m28.8456993 9.6718998s-.0767002 1.3769007.8418007 2.6015005-.9263 4.3691988-1.7261009 2.1464996c-.7992993-2.2225999.8843002-4.7480001.8843002-4.7480001z"/><path d="m18.1308994 11.3555002c-.0767002 1.1473999 1.0634003 2.6835995 1.684 3.75.7651997 1.3144007-1.4051991 2.6533003-2.1185989.3319998-.7133999-2.3223.4345989-4.0819998.4345989-4.0819998z"/><path d="m9.6455097 18.5576s1.3681898 1.5986004 2.1332903 2.9766006c.7650995 1.3778992-.3339996 5.3143997-1.0663996 2.6786995-.7324199-2.6357993-1.0668907-5.6553001-1.0668907-5.6553001z"/></g><path d="m28.8456993 59.3730507c-7.6313 0-10.7064991-1.1025391-13.1610994-4.7216797-1.3534994-1.9951706-2.2895994-5.1406708-2.8608999-9.6161728-.4310999-3.3769989-.1732998-8.4277992-.1254997-9.2685966-.3867006-1.3262024-3.7074804-12.8555012-3.7060099-17.6768017.0004892-3.0663996 2.1802101-4.4940996 3.6528101-4.4940996.8564997 0 1.4867992.4608994 1.6059999 1.1737995.0878992.5293007.2875996 1.2958994.5190001 2.1836004.3564997 1.3701.8007994 3.0751991 1.125 4.9717007l.1283989.7626991c.3628006 2.1709003.3628006 2.1709003 1.9927006 6.5098l.6548004 1.7479992.3505993-.2792988-1.2182999-11.5244007c-.1737995-.5811005-1.3628006-4.7509995-.6844997-7.9902.5034007-2.4062997 2.5125999-3.8964997 4.0858993-3.8964997.956501 0 1.6240005.5683002 1.7007008 1.4471998.0508003.585.1840992 1.5059004.3383999 2.5713005.3061008 2.1122999.6875 4.7412004.7348003 6.8066988.0576 2.5136013 1.0907993 8.6816006 1.4321003 10.6611004l.7255993-.1141987.9941998-10.8213005c-.0025005-.2159004.0205002-6.7080002 1.8188-10.6182003 1.0244007-2.2284999 2.512701-2.5605001 3.3086014-2.5605001.8866997 0 1.7460976.4061999 2.2987976 1.0859003.4541016.5576.6387024 1.2412.5069008 1.8740001-.3614006 1.7392993-.8700981 6.9784999-1.2138977 11.3993988-.2685013 3.4678001-.5 8.4239006-.5693016 9.9903011l.2900008.0907998c.3964996-3.4151001 2.3661995-11.2285004 2.4580002-11.5898991.0508003-.25 1.4413986-6.8086014 5.5419998-7.0664005 1.4678001-.0898008 2.2383003.5302992 2.5985985 1.0497999.8497009 1.2265997.6865997 3.4316998-.4852982 6.5537004-.8828011 2.3564987-2.7764015 15.2833004-2.7959023 15.4130993l-.6386986 5.3456993 2.6493988-.9969978c.3077011-.5137024 1.1973-1.7354012 3.7110023-4.2129021 1.8426971-1.8144989 3.4862976-2.1952991 4.5409966-2.1952991 1.8262024 0 3.142601 1.0692997 3.6377029 2.1298008.3300972.7070999.2870979 1.4160995-.1161995 1.8964996-1.0049019 1.2011986-4.3506012 4.9248009-4.8544998 5.4843979-.4092026.8193016-3.8760033 7.7070007-6.9717026 12.1709023-.7333983 1.0556679-4.8525008 6.3232498-13.9999999 6.3232498zm-16.2006988-44.4902506c-.7407007 0-2.3647003.8076-2.3657007 3.2069998-.0009995 4.8262005 3.6484003 17.2959003 3.6855001 17.4209003.0209999.0713005.0292997.1464996.0249004.2206993-.0033998.0557022-.3348999 5.6464996.1113997 9.1407013.5375996 4.2108994 1.4287004 7.2578011 2.6489 9.0565987 1.9501991 2.8750114 4.1592007 4.1572418 12.0956993 4.1572418 8.5068016 0 12.2733994-4.8066406 12.9414024-5.7705421 3.2245979-4.6493988 6.8798981-12.0135994 6.9159966-12.0868988.0264015-.0527.0596008-.1015015.0987015-.1455002.038002-.0419998 3.8330002-4.2598 4.8837013-5.5145988.0556984-.0674019.059597-.2598-.0643997-.5254021-.3115005-.6689987-1.2178001-1.3876991-2.4707031-1.3876991-1.1669998 0-2.4247971.6307983-3.6366997 1.8260994-3.0712967 3.0254021-3.5527992 4.0254021-3.5712967 4.0665016-.0713005.1532974-.2070007.2889977-.365303.3485985l-3.8661995 1.455101c-.2089005.0790977-.4472008.0419998-.6240005-.0956993-.1767006-.1387024-.2684975-.3604012-.2421989-.5830002l.7666016-6.4141006c.0811005-.5536995 1.9356003-13.2109013 2.8671989-15.6963005.9716988-2.5888996 1.2011986-4.5459003.6319008-5.3682003-.0937996-.1346998-.4267998-.5643997-1.4600029-.4980001-2.5956993.1631002-4.0331993 4.4355001-4.3671989 6.0683012-.0312004.1240997-2.419899 9.5977001-2.4931984 12.1749001-.0058022.2020988-.1054001.3885994-.2695007.5057983-.1641006.1182003-.3740005.152401-.5653992.0908012l-1.5321999-.4775009c-.2784004-.0868988-.4639015-.3505993-.4512005-.6425991.0023994-.0625.2704983-6.3603001.5941982-10.5293007.3213005-4.1356993.8394012-9.6444998 1.2378006-11.5614996.0713004-.3447-.1230012-.6494004-.2461015-.7998-.3065987-.3770003-.8046989-.6113-1.2997971-.6113-.8423004 0-1.6015015.6434999-2.1387005 1.8114996-1.6801014 3.6523004-1.7035999 10.075201-1.7040997 10.1396008l-1.0424004 11.3789005c-.0269012.2929993-.25.5303001-.5411015.5761986l-1.8460999.2910004c-.3403988.0596008-.6718998-.1777-.7339001-.5223999-.0605984-.3409004-1.4888-8.3818989-1.5600986-11.4794998-.0459003-1.987299-.4204006-4.5732994-.7217007-6.6513996-.1576996-1.085-.2933998-2.0225-.3470993-2.6444998-.0098-.1084003-.0240002-.2715006-.4180012-.2715006-.9326 0-2.4335995.9990005-2.8256989 2.8730001-.647501 3.0917997.6597004 7.3643007.6728992 7.4073.012701.0400009.0209999.0809994.025301.1229992l1.2617989 11.9356003c.0228996.2187004-.0669003.4344997-.2388.5712013l-1.3192997 1.0528011c-.1616993.1278992-.3759995.1708984-.5732994.1171989-.1987-.0557022-.3589001-.2022018-.4311008-.3955002l-.9653988-2.5762005c-1.6425009-4.3731003-1.6738005-4.4561005-2.057601-6.7509995l-.1279001-.7578011c-.3144999-1.8417988-.7509995-3.5175991-1.1015997-4.8633003-.2489994-.9559997-.4457996-1.7108997-.5433996-2.2969002-.0078001-.0477991-.1445999-.0985994-.3354997-.0985994z" fill="#72402d"/><path d="m28.3104992 48.5820007c-.0429001 0-.0873985-.0039024-.1313-.0135994-.3480988-.0723-.5717983-.4122009-.4994984-.7608032.8715992-4.2001991 6.5156002-9.0214996 11.8456974-8.7011986.3545036.0224991.6240005.3282013.6016006.6836014-.0224991.3544998-.2978973.6269989-.6835976.6016006-4.642601-.2949028-9.7496014 4.0478973-10.5030022 7.6777-.0629996.3036996-.3309992.5126992-.6298998.5126992z" fill="#72402d"/></svg>