<svg fill="none" height="80" viewBox="0 0 80 80" width="80" xmlns="http://www.w3.org/2000/svg" xmlns:xlink="http://www.w3.org/1999/xlink"><linearGradient id="a"><stop offset=".00132565" stop-color="#ffba47"/><stop offset="1" stop-color="#ffd748"/></linearGradient><linearGradient id="b" gradientUnits="userSpaceOnUse" x1="43.7718" x2="43.7718" xlink:href="#a" y1="51.7591" y2="31.7139"/><linearGradient id="c" gradientUnits="userSpaceOnUse" x1="53.9178" x2="53.9178" xlink:href="#a" y1="51.7596" y2="31.7145"/><linearGradient id="d"><stop offset=".00132565" stop-color="#ffcb4b"/><stop offset="1" stop-color="#ffd748"/></linearGradient><linearGradient id="e" gradientUnits="userSpaceOnUse" x1="20.4682" x2="59.7152" xlink:href="#d" y1="50.8098" y2="50.8098"/><linearGradient id="f" gradientUnits="userSpaceOnUse" x1="35.1243" x2="35.1243" xlink:href="#a" y1="51.7587" y2="31.7135"/><linearGradient id="g" gradientUnits="userSpaceOnUse" x1="39.9305" x2="39.9305" xlink:href="#a" y1="51.7592" y2="31.714"/><linearGradient id="h" gradientUnits="userSpaceOnUse" x1="31.9655" x2="36.2343" y1="69.3313" y2="33.1392"><stop offset="0" stop-color="#a1541e" stop-opacity="0"/><stop offset="1" stop-color="#c86f34"/></linearGradient><linearGradient id="i"><stop offset=".1388" stop-color="#ffbc47" stop-opacity="0"/><stop offset="1" stop-color="#ff8900"/></linearGradient><radialGradient id="j" cx="47.5039" cy="-.951092" gradientUnits="userSpaceOnUse" r="63.3868" xlink:href="#i"/><linearGradient id="k"><stop offset="0" stop-color="#ffbc47" stop-opacity="0"/><stop offset="1" stop-color="#ffbc47"/></linearGradient><linearGradient id="l" gradientUnits="userSpaceOnUse" x1="18.5135" x2="97.8266" xlink:href="#k" y1="11.9895" y2="41.438"/><radialGradient id="m" cx="0" cy="0" gradientTransform="matrix(0 50.4052 -19.0582 0 47.875 -1.45323)" gradientUnits="userSpaceOnUse" r="1" xlink:href="#i"/><linearGradient id="n" gradientUnits="userSpaceOnUse" x1="23.9938" x2="23.9938" xlink:href="#d" y1="37.0972" y2="54.2903"/><linearGradient id="o" gradientUnits="userSpaceOnUse" x1="33.887" x2="33.887" xlink:href="#d" y1="37.0974" y2="54.2905"/><linearGradient id="p"><stop offset="0" stop-color="#ffbc47" stop-opacity="0"/><stop offset="1" stop-color="#c86f34"/></linearGradient><linearGradient id="q" gradientUnits="userSpaceOnUse" x1="34.1292" x2="34.1292" xlink:href="#p" y1="36.6693" y2="59.452"/><linearGradient id="r" gradientUnits="userSpaceOnUse" x1="24.0076" x2="24.0076" xlink:href="#d" y1="39.603" y2="26.4045"/><linearGradient id="s" gradientUnits="userSpaceOnUse" x1="33.854" x2="33.854" xlink:href="#d" y1="39.6037" y2="26.4052"/><linearGradient id="t" gradientUnits="userSpaceOnUse" x1="27.234" x2="69.6258" xlink:href="#p" y1="33.4498" y2="57.5318"/><linearGradient id="u" gradientUnits="userSpaceOnUse" x1="20.4683" x2="59.7154" xlink:href="#d" y1="57.4293" y2="57.4293"/><radialGradient id="v" cx="39.7091" cy="16.3106" gradientUnits="userSpaceOnUse" r="70.3513"><stop offset=".6134" stop-color="#ffbc47" stop-opacity="0"/><stop offset="1" stop-color="#ff8900"/></radialGradient><linearGradient id="w" gradientUnits="userSpaceOnUse" x1="23.8457" x2="25.0219" xlink:href="#p" y1="36.6628" y2="56.1623"/><linearGradient id="x" gradientUnits="userSpaceOnUse" x1="13.5363" x2="78.958" xlink:href="#p" y1="31.2367" y2="72.7782"/><radialGradient id="y" cx="0" cy="0" gradientTransform="matrix(45.8481 0 0 19.6321 45.0459 42.1908)" gradientUnits="userSpaceOnUse" r="1"><stop offset="0" stop-color="#ffbc47" stop-opacity="0"/><stop offset="1" stop-color="#ffa754"/></radialGradient><linearGradient id="z" gradientUnits="userSpaceOnUse" x1="49.5851" x2="43.151" xlink:href="#k" y1="37.4101" y2="69.4571"/><linearGradient id="A" gradientUnits="userSpaceOnUse" x1="30.7293" x2="39.7309" xlink:href="#p" y1="58.1932" y2="30.7244"/><linearGradient id="B"><stop offset="0" stop-color="#fbe07a"/><stop offset=".2654" stop-color="#fcdf73" stop-opacity=".7346"/><stop offset=".6548" stop-color="#fddb5f" stop-opacity=".3452"/><stop offset="1" stop-color="#ffd748" stop-opacity="0"/></linearGradient><radialGradient id="C" cx="0" cy="0" gradientTransform="matrix(-9.81000692 -8.53763364 3.89580372 -4.47639979 31.2222 60.3699)" gradientUnits="userSpaceOnUse" r="1" xlink:href="#B"/><radialGradient id="D" cx="0" cy="0" gradientTransform="matrix(7.87894078 6.20298795 -2.28397781 2.90107381 51.1929 46.373)" gradientUnits="userSpaceOnUse" r="1" xlink:href="#B"/><radialGradient id="E" cx="0" cy="0" gradientTransform="matrix(-2.39291692 .62527087 -.36700022 -1.40451295 35.9929 9.2851)" gradientUnits="userSpaceOnUse" r="1" xlink:href="#B"/><radialGradient id="F" cx="0" cy="0" gradientTransform="matrix(-2.21506624 -1.62694936 .86475713 -1.17735337 57.8206 8.75312)" gradientUnits="userSpaceOnUse" r="1" xlink:href="#B"/><path d="m48.6165 30.8213c-.1815.8261-.648 1.406-1.1987 1.406-.5475 0-1.0431-.5961-1.2278-1.4124l-9.8646 2.9415.9752 7.8431 1.9016 1.393 9.0028-.6965 3.0161-8.9542-.5119-2.6436z" fill="url(#b)"/><path d="m47.9229 33.8477c.094-.3823.1911-.7937.2916-1.2375 1.6586-7.2243 4.3929-21.8932 5.0926-23.75921.7419-1.97939 2.1641-3.27847 5.1348-2.72126 2.9707.55722 3.8972 3.58948 2.8443 7.23727-1.0528 3.6478-3.5894 17.6331-3.5894 22.3953s1.7947 14.1667 1.7947 14.1667l-13.3633-4.9501z" fill="url(#c)"/><path d="m19.4049 50.9854c0 2.2742 1.1144 3.2947 1.6716 3.664.1847.1231.3078.1717.3078.1717l10.3926 7.5159 19.0229-3.8973-.5831-12.0351c-10.2663-1.3152-19.538-6.2556-30.1898-7.1238-1.1662 3.8162-.622 9.0514-.622 11.7046z" fill="url(#e)"/><path d="m43.773 37.6533s-21.1805-3.7126-23.1307.094c-.243.4729-.4438.988-.6123 1.5323 10.6518.8682 19.9235 5.8086 30.1898 7.1238l-.2527-5.2254z" fill="url(#f)"/><path d="m35.3049 6.44027c-3.651 1.48374-3.2785 5.07323-1.8563 8.90893 1.4222 3.8356 4.2082 20.6621 4.2082 20.6621h9.7739s-.3143-1.3282-.8099-3.4016c-1.4643-6.1293-4.503-18.7508-5.6239-22.64475-1.2991-4.51275-5.692-3.52468-5.692-3.52468z" fill="url(#g)"/><path d="m39.6622 51.3421c4.6877-.4924 7.6584 3.34 8.031 5.3356l1.5323-.5572-.6965-7.6552-4.9663-3.2007-6.6347-1.6716-6.7286-3.5247-1.2829-4.0203c-.0356 0-.3563-.0033-.392-.0065l-6.4533.6609c-.6965.2591-1.1986.5993-1.4286 1.0464-.8585 1.6716-1.1857 3.8486-1.2991 6.0191 1.0075 2.0248 3.272 3.0776 5.2449 3.0776 2.3196 0 3.7126-1.7623 4.5484-3.2493 0 0 .1523 2.6921 3.881 3.7126-.0032-.0032 2.7699 4.4415 6.6444 4.0333z" fill="url(#h)"/><path d="m40.5918 41.5512c-.8358-2.5982-.3142-.6966-.8844-5.8475-.6317-5.7017-2.4394-8.167-3.8486-16.334-.8942-5.1802-3.0258-8.666-1.5712-12.38825-2.5366 1.70726-2.1155 4.93385-.8423 8.36465 1.0788 2.9091 2.9415 13.292 3.7773 18.1352l-.9006.2689.9752 7.8431 1.9016 1.393 1.1565-.0907c.3013-.3175.4277-.7516.2365-1.3444z" fill="url(#j)"/><path d="m58.899 46.5407c-.5216-3.1715-1.2019-7.843-1.2019-10.7749 0-4.7654 2.5366-18.7443 3.5895-22.3953.5701-1.9826.5377-3.76439-.0681-5.0829-.7159 5.3097-3.8065 12.8515-4.0138 19.9008-.3888 13.2564-3.3012 12.9908-5.2709 14.1052 2.6727 1.0982 5.1963 2.4491 6.9652 4.2471z" fill="url(#l)"/><path d="m56.7349 6.03564c-1.8336.14903-2.8476 1.26993-3.4275 2.81845-.162.43087-.4309 1.54531-.771 3.09061-1.0205 4.6391-2.6727 13.1754-3.9199 18.8836-.1328.596-.5702 1.4027-1.1954 1.3995 0 0 .0032 0 0 0-.5475 0-1.0432-.5961-1.2278-1.4125-1.5648-6.5278-4.1726-17.3027-5.1931-20.84679-.7192-2.49773-2.3811-3.30762-3.7255-3.53763 4.2957.84553 5.9641 22.62212 10.1043 27.67262 0 0 3.1002-.1004 5.3906-19.3404.6933-5.89281 2.9546-8.54928 3.9653-8.72746z" fill="url(#m)"/><path d="m24.5334 45.9119c-2.7342 0-4.9954-2.2256-5.3745-6.4047-.0356-.3984-.8131-8.6302 3.8649-8.6302 4.3345 0 5.5623 1.6716 5.8442 7.2372.2818 5.5656-1.5064 7.7977-4.3346 7.7977z" fill="url(#n)"/><path d="m34.8902 46.5633c-3.3756 0-5.0634-1.4805-5.5299-5.7049-.4698-4.2244-2.501-11.8342 3.6963-12.2424 5.9382-.3888 6.0516 3.2849 6.0516 9.411s-1.312 8.5363-4.218 8.5363z" fill="url(#o)"/><path d="m34.699 40.7166c-2.5787 1.2991-4.3119 1.325-5.4134-.447.026.2008.0519.4017.0746.5863.4697 4.2245 2.1575 5.7049 5.5299 5.7049 2.3747 0 3.6835-1.6133 4.0852-5.5397-.6674-1.1403-2.7569-1.069-4.2763-.3045z" fill="url(#q)"/><path d="m24.4391 40.5311c-2.3001 0-4.2049-1.4286-4.5224-4.111.1296 1.0982-.8423-5.5397 3.2525-5.5397 3.6478 0 4.6812 1.0723 4.9177 4.6455.2398 3.5766-1.2666 5.0052-3.6478 5.0052z" fill="url(#r)"/><path d="m34.4205 40.2532c-2.7699 0-4.0139-1.4578-4.4836-4.448-.243-1.5388-1.8142-6.9068 3.2687-7.1951 4.8724-.2786 4.8756 3.2849 4.976 6.3075.1458 4.3508-1.3768 5.3356-3.7611 5.3356z" fill="url(#s)"/><path d="m32.8752 46.3115c.5929.1652 1.2538.2526 2.0151.2526 2.9059 0 4.2179-2.4134 4.2179-8.5363 0-5.9025-.1198-9.5179-5.449-9.424 2.096 1.2505 3.8033 4.0949 3.8033 9.2394.0032 7.315-1.6392 8.4553-4.5873 8.4683z" fill="url(#t)"/><path d="m33.0146 44.3055c0-2.4751 1.7494-2.5528 6.4339-2.9707 3.3497-.2981 6.991-1.176 11.6301.6187 5.2935 2.0475 10.2695 5.0117 10.3311 10.3311.055 4.7622-3.6511 21.715-19.8587 21.715-16.2077 0-21.6535-8.6627-22.1491-23.0141l28.2881 5.692s.6026-5.057-2.8606-6.5569c-1.4772-.6415-4.6391-.1232-6.7448-.1232-2.0993 0-5.07-2.3519-5.07-5.6919z" fill="url(#u)"/><path d="m53.123 63.267c-6.868 5.0116-6.3108 7.7944-12.7122 7.7944s-10.5319-3.3886-13.4573-6.3107c-2.9221-2.9221-5.3809-7.7944-6.5893-11.507-.2851-.8747-.6188-1.6069-.9589-2.2289.5021 14.3352 5.9479 22.985 22.1458 22.985 16.2077 0 19.9138-16.9528 19.8587-21.715-.0226-2.0831-.8098-3.8001-2.0636-5.2482.3596 6.8064-.5831 12.1129-6.2232 16.2304z" fill="url(#v)"/><path d="m24.5559 43.3147c-2.7796 0-5.0797-2.2127-5.5559-6.3367.0194.8294.081 1.6879.1587 2.5334.3758 4.1758 2.6403 6.4047 5.3745 6.4047 2.6533 0 4.3702-1.9989 4.3411-6.8356-.5669 2.9675-2.1446 4.2342-4.3184 4.2342z" fill="url(#w)"/><path d="m28.8677 38.1174c-.2689-5.3033-1.3995-7.0688-5.2547-7.2243 2.0215.3304 5.935 8.1216.5475 14.9798.1264.0098.2462.0389.3726.0389 2.8282 0 4.6164-2.2256 4.3346-7.7944z" fill="url(#x)"/><path d="m49.3486 51.7304c-.1231-2.9707-3.7741-5.9382-6.8064-5.6305-2.6176.2657-7.3571.622-9.4758-1.3152.2721 3.0776 3.0225 5.2157 5.0214 5.2157 2.1025 0 5.2643-.5151 6.7448.1231 3.4631 1.5 2.8606 6.557 2.8606 6.557s1.7785-1.9827 1.6554-4.9501z" fill="url(#y)"/><path d="m61.4127 52.2846c-.0616-5.3194-5.0376-8.2836-10.3311-10.3311-4.6391-1.7947-8.2804-.9168-11.6301-.6187-3.5733.3175-5.4296.447-6.1131 1.5841 4.4026-1.0885 8.5266-1.5323 13.6128-.9492 6.6282.7581 11.6366 4.84 12.5469 7.9662.8974 3.0873.7678 8.8376.7645 8.9737.8521-2.7666 1.1663-5.2223 1.1501-6.625z" fill="url(#z)"/><g fill="#975500"><path d="m47.6931 56.6774c.081-1.2019-.0162-2.4329-.4017-3.5733-.3693-1.1306-1.095-2.1964-2.1673-2.7277-1.0399-.5864-2.3163-.473-3.502-.4503-1.2051.0486-2.407.1911-3.6316.1847-2.5172-.2203-4.5678-2.3649-5.0246-4.7882-.1134-.609-.1458-1.2375-.0194-1.866.1328-.6317.6155-1.2083 1.2083-1.4448 1.1728-.4989 2.4038-.5572 3.6025-.6998 2.4167-.149 4.7978-.5831 7.2437-.5961 2.4426-.0356 4.8788.5313 7.0947 1.5194 2.2256.946 4.4253 2.0604 6.2589 3.677 1.8304 1.5938 3.097 3.9263 3.0582 6.3755-.0195-2.4524-1.3315-4.7169-3.1716-6.246-1.8239-1.5776-4.0106-2.6662-6.233-3.5894-2.2126-.9654-4.5937-1.4967-7.0007-1.4449-2.3973.0324-4.8011.4892-7.2114.6544-1.1889.1296-2.4297.1911-3.4987.6414-.5378.2203-.9136.6674-1.0432 1.2214-.1166.5572-.0972 1.1662.0065 1.7429.4017 2.2968 2.3876 4.3896 4.7428 4.6067 1.1954.0162 2.407-.1134 3.6153-.1523 1.1922-.0097 2.4881-.1263 3.5928.5054 1.1047.5831 1.8206 1.7008 2.1672 2.8541.3564 1.1597.4244 2.3973.3143 3.5959z"/><path d="m28.6928 36.0371c.2235 1.7688.4471 3.57.1717 5.3648-.1231.8909-.3401 1.7882-.7775 2.6014-.4179.8196-1.1468 1.4999-2.028 1.8368-1.7785.5831-3.8421.0389-5.057-1.3509-1.2667-1.3509-1.7396-3.2137-1.8433-4.9792.2397 1.7526.7937 3.5408 2.015 4.8172 1.1857 1.3023 3.1489 1.7462 4.7655 1.1792 1.6813-.5669 2.4459-2.4329 2.6921-4.1369.2851-1.7559.149-3.5474.0615-5.3324z"/><path d="m33.5589 46.4492c-.5702.1879-1.0917-.068-1.568-.311-.4827-.2527-.9135-.6026-1.2666-1.014-.716-.8261-1.0918-1.866-1.3153-2.8929-.2041-1.0464-.2333-2.0799-.379-3.1101-.1264-1.0302-.2398-2.0701-.2851-3.11.1328 1.0335.311 2.0539.4827 3.0809.1976 1.0205.2851 2.0733.528 3.0582.23.9913.6026 1.9664 1.2667 2.7115.3272.3726.7224.6803 1.163.9071.4406.243.9233.3013 1.3736.6803z"/><path d="m35.8523 28.813c.5702.1458 1.1306.3823 1.6004.7613.4697.3823.8034.9103 1.0431 1.4578.4859 1.108.6188 2.3163.7224 3.4955.0551 1.1857.0616 2.3682.0324 3.5474-.0097.5864.0033 1.1792-.0259 1.772-.0227.2948-.0227.5961-.0907.8942-.0551.2591-.1911.6965-.5507.6673.2948-.1036.2851-.4406.3499-.703.0356-.2818.068-.5734.068-.8649.0065-.5864-.0259-1.1728-.0389-1.7656-.0324-1.1792-.0194-2.3584-.1004-3.5279-.0648-1.163-.1426-2.352-.5702-3.4308-.379-1.0982-1.3088-1.9437-2.4394-2.3033z"/></g><path d="m39.6618 51.3413c-3.8778.4082-6.6476-4.0366-6.6476-4.0366-3.7288-1.0204-3.8811-3.7125-3.8811-3.7125-.8358 1.4837-2.2256 3.2493-4.5484 3.2493-1.9729 0-4.2373-1.0529-5.2449-3.0776.0227-.4503.0648-.9006.1102-1.3445h-.0162c-.1263 1.2246-.1555 2.4686-.149 3.664 1.9956 2.2872 5.1218 2.6111 7.1206 2.0215.541-.1587 3.0679-2.0668 5.0149-.149 2.1154 2.0766 4.5743 4.733 8.7955 4.6391 4.2212-.094 7.4802 4.0819 7.4802 4.0819-.3758-1.9956-3.3465-5.828-8.0342-5.3356z" fill="url(#A)"/><path d="m22.3918 51.4741c-1.487 1.7915 3.0387 12.1096 7.5029 14.711 4.4674 2.5981 10.0622 1.8012 11.1539-.2624 1.0918-2.0637-3.5506-5.2773-7.3506-8.8312-6.5537-6.1358-9.8192-7.4057-11.3062-5.6174z" fill="url(#C)" opacity=".75"/><path d="m58.7919 52.7965c.7905-1.0659-3.1651-7.6714-6.3237-9.4532-3.1586-1.7817-9.3754-.7224-9.8807.5281-.5054 1.2505 5.4846 2.6597 8.303 5.0149 4.8594 4.0657 7.1077 4.976 7.9014 3.9102z" fill="url(#D)" opacity=".75"/><path d="m33.614 9.90007c-.2203-.80018 1.3865-2.17701 2.4394-2.45238 1.0529-.27536 2.0863.14903 2.3066.94921s-.8261 1.54528-1.7397 2.2126c-1.5777 1.1501-2.786.0907-3.0063-.70943z" fill="url(#E)" opacity=".75"/><path d="m55.6173 7.16863c.2689-.83582 2.2839-.51186 3.2623.20409.9783.71595 1.5485 1.97616 1.2764 2.81198-.2722.8358-1.5.5054-2.582.2268-1.8692-.4795-2.2288-2.40382-1.9567-3.24287z" fill="url(#F)" opacity=".75"/></svg>